<?xml version="1.0" encoding="UTF-8" standalone="no"?>
<svg
   xmlns:dc="http://purl.org/dc/elements/1.1/"
   xmlns:cc="http://creativecommons.org/ns#"
   xmlns:rdf="http://www.w3.org/1999/02/22-rdf-syntax-ns#"
   xmlns:svg="http://www.w3.org/2000/svg"
   xmlns="http://www.w3.org/2000/svg"
   viewBox="0 0 229.81065 277.50519"
   height="277.50519"
   width="229.81065"
   xml:space="preserve"
   id="svg2"
   version="1.1"><metadata
     id="metadata8"><rdf:RDF><cc:Work
         rdf:about=""><dc:format>image/svg+xml</dc:format><dc:type
           rdf:resource="http://purl.org/dc/dcmitype/StillImage" /></cc:Work></rdf:RDF></metadata><defs
     id="defs6"><clipPath
       id="clipPath18"
       clipPathUnits="userSpaceOnUse"><path
         id="path16"
         d="M 0,208.129 H 172.358 V 0 H 0 Z" /></clipPath></defs><g
     transform="matrix(1.3333333,0,0,-1.3333333,0,277.50519)"
     id="g10"><g
       id="g12"><g
         clip-path="url(#clipPath18)"
         id="g14"><g
           transform="translate(86.1792,208.1289)"
           id="g20"><path
             id="path22"
             style="fill:#2b2b29;fill-opacity:1;fill-rule:nonzero;stroke:none"
             d="M 0,0 C -49.602,0 -86.179,-31.608 -86.179,-31.608 V -46.767 L 0,-22.062 86.179,-46.767 v 15.159 C 86.179,-31.608 47.621,0 0,0" /></g><g
           transform="translate(104.7417,84.8857)"
           id="g24"><path
             id="path26"
             style="fill:#fcc500;fill-opacity:1;fill-rule:nonzero;stroke:none"
             d="m 0,0 c -7.845,0 -14.208,6.363 -14.208,14.211 0,7.849 6.363,14.212 14.208,14.212 7.852,0 14.215,-6.363 14.215,-14.212 C 14.215,6.363 7.852,0 0,0 m -46.322,52.297 c -7.376,0 -13.362,5.98 -13.362,13.355 0,7.38 5.986,13.36 13.362,13.36 7.377,0 13.356,-5.98 13.356,-13.36 0,-7.375 -5.979,-13.355 -13.356,-13.355 m 27.76,55.788 c -49.603,0 -86.18,-31.608 -86.18,-31.608 l 47.404,-88.763 c 2.255,1.27 4.83,2.055 7.606,2.055 8.634,0 15.628,-6.999 15.628,-15.631 0,-6.08 -3.503,-11.29 -8.573,-13.877 l 24.115,-45.147 61.355,114.88 c -6.135,2.758 -10.427,8.89 -10.427,16.048 0,9.733 7.897,17.622 17.625,17.622 3.434,0 6.616,-1.023 9.328,-2.721 l 8.297,15.534 c 0,0 -38.557,31.608 -86.178,31.608" /></g></g></g></g></svg>