<svg width="21" height="74" viewBox="0 0 21 74" fill="none" xmlns="http://www.w3.org/2000/svg">
<g clip-path="url(#clip0)">
<path d="M0.754519 20.3312L16.5956 36.2411C17.6055 37.253 19.2396 37.253 20.2464 36.2411C21.2512 35.2295 21.2512 33.5884 20.2464 32.5773L6.22943 18.4992L20.2439 4.42352C21.2512 3.41192 21.2512 1.77128 20.2439 0.759433C19.2372 -0.254587 17.6031 -0.254587 16.5956 0.759433L0.754519 16.6696C0.250395 17.1751 -4.54284e-07 17.8363 -4.54284e-07 18.4992C-4.54284e-07 19.162 0.250395 19.8281 0.754519 20.3312Z" fill="white"/>
</g>
<g clip-path="url(#clip1)">
<path d="M20.2455 57.3312L4.40439 73.2411C3.39447 74.253 1.76043 74.253 0.753645 73.2411C-0.251215 72.2295 -0.251215 70.5884 0.753645 69.5773L14.7706 55.4992L0.756051 41.4235C-0.251215 40.4119 -0.251215 38.7713 0.756051 37.7594C1.76284 36.7454 3.39688 36.7454 4.40439 37.7594L20.2455 53.6696C20.7496 54.1751 21 54.8363 21 55.4992C21 56.162 20.7496 56.8281 20.2455 57.3312Z" fill="white"/>
</g>
<defs>
<clipPath id="clip0">
<rect width="21" height="37" fill="white" transform="matrix(-1 0 0 1 21 0)"/>
</clipPath>
<clipPath id="clip1">
<rect width="21" height="37" fill="white" transform="translate(0 37)"/>
</clipPath>
</defs>
</svg>
